<svg
  width="100%"
  height="100%"
  viewBox="0 0 300 300"
  fill="none"
  xmlns="http://www.w3.org/2000/svg"
>
  <path
    d="M242.372 242.372C249.935 249.935 262.313 250.001 268.839 241.527C279.269 227.985 287.337 212.721 292.651 196.375C299.967 173.871 301.855 149.955 298.161 126.581C294.466 103.208 285.294 81.0399 271.394 61.8891C257.494 42.7383 239.26 27.1478 218.182 16.3916C197.104 5.63535 173.781 0.0185226 150.117 4.57253e-05C126.453 -0.0184312 103.121 5.56196 82.0267 16.2853C60.9322 27.0086 42.674 42.5705 28.7439 61.6996C18.6258 75.594 10.9997 91.084 6.15387 107.476C3.12177 117.733 10.4381 127.717 20.9997 129.403V129.403C31.5613 131.089 41.3314 123.804 44.8212 113.694C48.411 103.295 53.5351 93.4508 60.0534 84.4997C70.3866 70.3099 83.9304 58.7662 99.5781 50.8118C115.226 42.8573 132.533 38.7178 150.087 38.7315C167.64 38.7452 184.942 42.9117 200.577 50.8906C216.212 58.8695 229.738 70.4343 240.049 84.6402C250.36 98.8461 257.163 115.29 259.904 132.628C262.645 149.966 261.244 167.707 255.817 184.4C252.394 194.931 247.429 204.856 241.115 213.865C234.976 222.623 234.81 234.81 242.372 242.372V242.372Z"
    fill="white"
  >
    <animateTransform
      attributeName="transform"
      attributeType='XML'
      type="rotate"
      dur="0.5s"
      from="0 150 150"
      to="360 150 150"
      repeatCount="indefinite"
    />
  </path>

  <path
    d="M300 150C300 232.843 232.843 300 150 300C67.1573 300 0 232.843 0 150C0 67.1573 67.1573 0 150 0C232.843 0 300 67.1573 300 150ZM38.7315 150C38.7315 211.452 88.5481 261.269 150 261.269C211.452 261.269 261.269 211.452 261.269 150C261.269 88.5481 211.452 38.7315 150 38.7315C88.5481 38.7315 38.7315 88.5481 38.7315 150Z"
    fill="white"
    fill-opacity="0.3"
  />
</svg>
