<svg width="40" height="39" viewBox="0 0 40 39" fill="none" xmlns="http://www.w3.org/2000/svg">
<g clip-path="url(#clip0_90_72)">
<path d="M14.048 1.09343L1.91563 8.01866C0.857658 8.62256 0.495169 9.96006 1.10599 11.006L12.7189 30.8923C13.3297 31.9382 14.6825 32.2966 15.7405 31.6927L27.8729 24.7675C28.9308 24.1636 29.2933 22.8261 28.6825 21.7801L17.0696 1.8939C16.4588 0.847911 15.1059 0.48953 14.048 1.09343Z" fill="#0077CC"/>
<path d="M27.5576 3.46265H13.5484C12.3268 3.46265 11.3364 4.44176 11.3364 5.64956V28.6122C11.3364 29.82 12.3268 30.7991 13.5484 30.7991H27.5576C28.7793 30.7991 29.7696 29.82 29.7696 28.6122V5.64956C29.7696 4.44176 28.7793 3.46265 27.5576 3.46265Z" fill="#008FF5"/>
<path d="M38.0109 14.215L25.8785 7.28975C24.8205 6.68585 23.4677 7.04423 22.8569 8.09021L11.244 27.9764C10.6332 29.0224 10.9957 30.3599 12.0536 30.9638L24.186 37.889C25.2439 38.4929 26.5968 38.1346 27.2076 37.0886L38.8205 17.2024C39.4313 16.1564 39.0688 14.8189 38.0109 14.215Z" fill="#0095FF"/>
</g>
<defs>
<clipPath id="clip0_90_72">
<rect width="40" height="39" fill="white"/>
</clipPath>
</defs>
</svg>
