<svg width="299" height="38" viewBox="0 0 299 38" fill="none" xmlns="http://www.w3.org/2000/svg">
<g clip-path="url(#clip0_90_66)">
<path d="M13.7105 1.06539L1.86961 7.81306C0.837055 8.40147 0.483274 9.70468 1.07942 10.7238L12.4134 30.1001C13.0095 31.1193 14.3298 31.4685 15.3624 30.8801L27.2033 24.1324C28.2358 23.544 28.5896 22.2408 27.9935 21.2216L16.6595 1.84534C16.0634 0.82617 14.7431 0.476978 13.7105 1.06539Z" fill="#0077CC"/>
<path d="M26.8955 3.37384H13.2228C12.0305 3.37384 11.064 4.32785 11.064 5.50468V27.8785C11.064 29.0553 12.0305 30.0094 13.2228 30.0094H26.8955C28.0878 30.0094 29.0543 29.0553 29.0543 27.8785V5.50468C29.0543 4.32785 28.0878 3.37384 26.8955 3.37384Z" fill="#008FF5"/>
<path d="M37.0982 13.8504L25.2573 7.10277C24.2248 6.51436 22.9044 6.86355 22.3083 7.88272L10.9743 27.259C10.3782 28.2782 10.732 29.5814 11.7645 30.1698L23.6054 36.9175C24.638 37.5059 25.9583 37.1567 26.5545 36.1375L37.8884 16.7612C38.4845 15.7421 38.1308 14.4389 37.0982 13.8504Z" fill="#0095FF"/>
<path d="M57.1482 26.789C55.6818 26.789 54.3339 26.4528 53.1045 25.7802C51.8899 25.1077 50.9197 24.1721 50.1939 22.9732C49.4829 21.7598 49.1274 20.4001 49.1274 18.8942C49.1274 17.3884 49.4829 16.0361 50.1939 14.8372C50.9197 13.6383 51.8899 12.7027 53.1045 12.0302C54.3339 11.3576 55.6818 11.0214 57.1482 11.0214C58.6146 11.0214 59.955 11.3576 61.1697 12.0302C62.399 12.7027 63.3619 13.6383 64.058 14.8372C64.769 16.0361 65.1245 17.3884 65.1245 18.8942C65.1245 20.4001 64.769 21.7598 64.058 22.9732C63.347 24.1721 62.3843 25.1077 61.1697 25.7802C59.955 26.4528 58.6146 26.789 57.1482 26.789ZM57.1482 23.3679C58.3924 23.3679 59.3848 22.9586 60.1254 22.1399C60.8808 21.3212 61.2585 20.2392 61.2585 18.8942C61.2585 17.5346 60.8808 16.4527 60.1254 15.6486C59.3848 14.8299 58.3924 14.4205 57.1482 14.4205C55.8891 14.4205 54.8819 14.8226 54.1265 15.6267C53.3859 16.4308 53.0156 17.5199 53.0156 18.8942C53.0156 20.2539 53.3859 21.3431 54.1265 22.1618C54.8819 22.9659 55.8891 23.3679 57.1482 23.3679ZM74.7923 14.267C76.2439 14.267 77.3992 14.7348 78.2584 15.6705C79.1322 16.5916 79.5692 17.8635 79.5692 19.4863V26.6355H75.7921V19.9907C75.7921 19.172 75.5773 18.5361 75.1478 18.0828C74.7182 17.6296 74.1405 17.403 73.4148 17.403C72.689 17.403 72.1113 17.6296 71.6818 18.0828C71.2522 18.5361 71.0375 19.172 71.0375 19.9907V26.6355H67.2382V14.3986H71.0375V16.0214C71.4226 15.4805 71.9409 15.0565 72.5927 14.7495C73.2444 14.4278 73.9776 14.267 74.7923 14.267ZM86.0086 10.4074V26.6355H82.2093V10.4074H86.0086ZM90.6725 13.1267C90.006 13.1267 89.4581 12.9366 89.0286 12.5565C88.6138 12.1618 88.4065 11.6793 88.4065 11.1091C88.4065 10.5243 88.6138 10.0418 89.0286 9.66175C89.4581 9.26701 90.006 9.06964 90.6725 9.06964C91.3247 9.06964 91.8581 9.26701 92.2728 9.66175C92.7018 10.0418 92.9168 10.5243 92.9168 11.1091C92.9168 11.6793 92.7018 12.1618 92.2728 12.5565C91.8581 12.9366 91.3247 13.1267 90.6725 13.1267ZM92.5615 14.3986V26.6355H88.7619V14.3986H92.5615ZM102.869 14.267C104.32 14.267 105.476 14.7348 106.335 15.6705C107.208 16.5916 107.646 17.8635 107.646 19.4863V26.6355H103.868V19.9907C103.868 19.172 103.653 18.5361 103.224 18.0828C102.794 17.6296 102.217 17.403 101.491 17.403C100.765 17.403 100.188 17.6296 99.7586 18.0828C99.3286 18.5361 99.1136 19.172 99.1136 19.9907V26.6355H95.3149V14.3986H99.1136V16.0214C99.4986 15.4805 100.018 15.0565 100.669 14.7495C101.321 14.4278 102.054 14.267 102.869 14.267ZM121.972 20.3197C121.972 20.6706 121.951 21.0361 121.906 21.4162H113.307C113.366 22.1764 113.611 22.7612 114.04 23.1706C114.485 23.5653 115.025 23.7627 115.663 23.7627C116.61 23.7627 117.269 23.3679 117.64 22.5785H121.683C121.477 23.3826 121.099 24.1063 120.551 24.7495C120.018 25.3928 119.343 25.8972 118.529 26.2627C117.714 26.6282 116.803 26.8109 115.796 26.8109C114.581 26.8109 113.5 26.5551 112.552 26.0434C111.604 25.5317 110.863 24.8007 110.331 23.8504C109.797 22.9001 109.53 21.789 109.53 20.5171C109.53 19.2451 109.789 18.134 110.308 17.1837C110.842 16.2334 111.582 15.5024 112.53 14.9907C113.478 14.479 114.566 14.2232 115.796 14.2232C116.996 14.2232 118.062 14.4717 118.996 14.9688C119.928 15.4659 120.654 16.1749 121.173 17.096C121.706 18.017 121.972 19.0916 121.972 20.3197ZM118.084 19.3328C118.084 18.6896 117.862 18.1778 117.418 17.7977C116.974 17.4177 116.418 17.2276 115.751 17.2276C115.114 17.2276 114.574 17.4103 114.129 17.7758C113.7 18.1413 113.433 18.6603 113.33 19.3328H118.084ZM140.572 16.1969C140.572 17.0887 140.365 17.9074 139.95 18.653C139.535 19.384 138.898 19.9761 138.039 20.4293C137.179 20.8826 136.114 21.1092 134.84 21.1092H132.485V26.6355H128.685V11.2407H134.84C136.084 11.2407 137.135 11.4527 137.994 11.8767C138.853 12.3006 139.497 12.8854 139.927 13.6311C140.357 14.3767 140.572 15.2319 140.572 16.1969ZM134.551 18.1267C135.276 18.1267 135.818 17.9585 136.173 17.6223C136.528 17.2861 136.706 16.8109 136.706 16.1969C136.706 15.5828 136.528 15.1076 136.173 14.7714C135.818 14.4352 135.276 14.267 134.551 14.267H132.485V18.1267H134.551ZM146.349 10.4074V26.6355H142.55V10.4074H146.349ZM148.347 20.4951C148.347 19.2378 148.584 18.134 149.058 17.1837C149.547 16.2334 150.206 15.5024 151.036 14.9907C151.865 14.479 152.791 14.2232 153.812 14.2232C154.687 14.2232 155.45 14.3986 156.101 14.7495C156.767 15.1004 157.278 15.5609 157.635 16.1311V14.3986H161.433V26.6355H157.635V24.903C157.264 25.4732 156.746 25.9337 156.079 26.2846C155.427 26.6355 154.664 26.8109 153.79 26.8109C152.783 26.8109 151.865 26.5551 151.036 26.0434C150.206 25.5171 149.547 24.7787 149.058 23.8285C148.584 22.8636 148.347 21.7524 148.347 20.4951ZM157.635 20.5171C157.635 19.5813 157.367 18.8431 156.834 18.3021C156.316 17.7612 155.679 17.4907 154.923 17.4907C154.168 17.4907 153.524 17.7612 152.99 18.3021C152.472 18.8284 152.213 19.5594 152.213 20.4951C152.213 21.4308 152.472 22.1764 152.99 22.732C153.524 23.2729 154.168 23.5434 154.923 23.5434C155.679 23.5434 156.316 23.2729 156.834 22.732C157.367 22.191 157.635 21.4528 157.635 20.5171ZM171.736 14.267C173.188 14.267 174.343 14.7348 175.202 15.6705C176.076 16.5916 176.513 17.8635 176.513 19.4863V26.6355H172.736V19.9907C172.736 19.172 172.522 18.5361 172.092 18.0828C171.662 17.6296 171.084 17.403 170.359 17.403C169.633 17.403 169.055 17.6296 168.626 18.0828C168.196 18.5361 167.982 19.172 167.982 19.9907V26.6355H164.182V14.3986H167.982V16.0214C168.367 15.4805 168.885 15.0565 169.537 14.7495C170.188 14.4278 170.921 14.267 171.736 14.267ZM186.707 14.267C188.159 14.267 189.315 14.7348 190.174 15.6705C191.047 16.5916 191.484 17.8635 191.484 19.4863V26.6355H187.707V19.9907C187.707 19.172 187.492 18.5361 187.063 18.0828C186.633 17.6296 186.056 17.403 185.33 17.403C184.604 17.403 184.026 17.6296 183.596 18.0828C183.167 18.5361 182.952 19.172 182.952 19.9907V26.6355H179.153V14.3986H182.952V16.0214C183.337 15.4805 183.856 15.0565 184.508 14.7495C185.16 14.4278 185.893 14.267 186.707 14.267ZM196.035 13.1267C195.368 13.1267 194.821 12.9366 194.391 12.5565C193.976 12.1618 193.769 11.6793 193.769 11.1091C193.769 10.5243 193.976 10.0418 194.391 9.66175C194.821 9.26701 195.368 9.06964 196.035 9.06964C196.687 9.06964 197.221 9.26701 197.635 9.66175C198.064 10.0418 198.279 10.5243 198.279 11.1091C198.279 11.6793 198.064 12.1618 197.635 12.5565C197.221 12.9366 196.687 13.1267 196.035 13.1267ZM197.924 14.3986V26.6355H194.124V14.3986H197.924ZM208.232 14.267C209.682 14.267 210.838 14.7348 211.697 15.6705C212.571 16.5916 213.008 17.8635 213.008 19.4863V26.6355H209.231V19.9907C209.231 19.172 209.016 18.5361 208.587 18.0828C208.157 17.6296 207.579 17.403 206.853 17.403C206.128 17.403 205.55 17.6296 205.121 18.0828C204.691 18.5361 204.476 19.172 204.476 19.9907V26.6355H200.677V14.3986H204.476V16.0214C204.861 15.4805 205.38 15.0565 206.031 14.7495C206.683 14.4278 207.417 14.267 208.232 14.267ZM220.359 14.2232C221.232 14.2232 221.995 14.3986 222.647 14.7495C223.314 15.1004 223.825 15.5609 224.18 16.1311V14.3986H227.98V26.6136C227.98 27.7393 227.749 28.7554 227.291 29.6618C226.846 30.5829 226.157 31.3138 225.224 31.8548C224.306 32.3958 223.158 32.6662 221.78 32.6662C219.943 32.6662 218.455 32.2349 217.315 31.3724C216.174 30.5244 215.522 29.3695 215.359 27.9074H219.114C219.233 28.3752 219.514 28.7408 219.959 29.0039C220.403 29.2817 220.951 29.4206 221.603 29.4206C222.387 29.4206 223.01 29.194 223.469 28.7408C223.943 28.3022 224.18 27.5931 224.18 26.6136V24.8811C223.809 25.4513 223.298 25.9191 222.647 26.2846C221.995 26.6355 221.232 26.8109 220.359 26.8109C219.336 26.8109 218.41 26.5551 217.581 26.0434C216.752 25.5171 216.092 24.7787 215.604 23.8285C215.13 22.8636 214.892 21.7524 214.892 20.4951C214.892 19.2378 215.13 18.134 215.604 17.1837C216.092 16.2334 216.752 15.5024 217.581 14.9907C218.41 14.479 219.336 14.2232 220.359 14.2232ZM224.18 20.5171C224.18 19.5813 223.914 18.8431 223.38 18.3021C222.861 17.7612 222.224 17.4907 221.47 17.4907C220.714 17.4907 220.069 17.7612 219.537 18.3021C219.018 18.8284 218.759 19.5594 218.759 20.4951C218.759 21.4308 219.018 22.1764 219.537 22.732C220.069 23.2729 220.714 23.5434 221.47 23.5434C222.224 23.5434 222.861 23.2729 223.38 22.732C223.914 22.191 224.18 21.4528 224.18 20.5171ZM247.323 16.1969C247.323 17.0887 247.116 17.9074 246.7 18.653C246.286 19.384 245.649 19.9761 244.79 20.4293C243.931 20.8826 242.865 21.1092 241.59 21.1092H239.235V26.6355H235.437V11.2407H241.59C242.835 11.2407 243.887 11.4527 244.746 11.8767C245.605 12.3006 246.249 12.8854 246.679 13.6311C247.108 14.3767 247.323 15.2319 247.323 16.1969ZM241.301 18.1267C242.027 18.1267 242.568 17.9585 242.923 17.6223C243.279 17.2861 243.457 16.8109 243.457 16.1969C243.457 15.5828 243.279 15.1076 242.923 14.7714C242.568 14.4352 242.027 14.267 241.301 14.267H239.235V18.1267H241.301ZM254.944 26.8109C253.73 26.8109 252.634 26.5551 251.656 26.0434C250.693 25.5317 249.931 24.8007 249.367 23.8504C248.82 22.9001 248.545 21.789 248.545 20.5171C248.545 19.2598 248.827 18.1559 249.39 17.2056C249.953 16.2407 250.723 15.5024 251.701 14.9907C252.678 14.479 253.774 14.2232 254.988 14.2232C256.203 14.2232 257.299 14.479 258.277 14.9907C259.255 15.5024 260.025 16.2407 260.588 17.2056C261.15 18.1559 261.432 19.2598 261.432 20.5171C261.432 21.7743 261.143 22.8855 260.566 23.8504C260.002 24.8007 259.225 25.5317 258.232 26.0434C257.255 26.5551 256.159 26.8109 254.944 26.8109ZM254.944 23.5653C255.67 23.5653 256.285 23.3022 256.788 22.7758C257.307 22.2495 257.566 21.4966 257.566 20.5171C257.566 19.5375 257.314 18.7846 256.811 18.2583C256.322 17.732 255.714 17.4688 254.988 17.4688C254.248 17.4688 253.633 17.732 253.144 18.2583C252.656 18.7699 252.411 19.5229 252.411 20.5171C252.411 21.4966 252.648 22.2495 253.122 22.7758C253.611 23.3022 254.219 23.5653 254.944 23.5653ZM271.024 26.6355L267.247 21.5039V26.6355H263.448V10.4074H267.247V19.3767L271.002 14.3986H275.69L270.535 20.539L275.734 26.6355H271.024ZM288.869 20.3197C288.869 20.6706 288.846 21.0361 288.802 21.4162H280.204C280.263 22.1764 280.507 22.7612 280.937 23.1706C281.381 23.5653 281.922 23.7627 282.559 23.7627C283.507 23.7627 284.166 23.3679 284.536 22.5785H288.58C288.372 23.3826 287.995 24.1063 287.447 24.7495C286.913 25.3928 286.24 25.8972 285.425 26.2627C284.611 26.6282 283.699 26.8109 282.692 26.8109C281.478 26.8109 280.396 26.5551 279.448 26.0434C278.5 25.5317 277.76 24.8007 277.226 23.8504C276.693 22.9001 276.427 21.789 276.427 20.5171C276.427 19.2451 276.686 18.134 277.204 17.1837C277.737 16.2334 278.478 15.5024 279.426 14.9907C280.374 14.479 281.462 14.2232 282.692 14.2232C283.892 14.2232 284.959 14.4717 285.891 14.9688C286.824 15.4659 287.55 16.1749 288.069 17.096C288.602 18.017 288.869 19.0916 288.869 20.3197ZM284.98 19.3328C284.98 18.6896 284.758 18.1778 284.314 17.7977C283.869 17.4177 283.314 17.2276 282.648 17.2276C282.011 17.2276 281.47 17.4103 281.026 17.7758C280.596 18.1413 280.33 18.6603 280.225 19.3328H284.98ZM294.673 16.4381C295.117 15.7655 295.672 15.2392 296.338 14.8591C297.005 14.4644 297.746 14.267 298.56 14.267V18.2363H297.516C296.568 18.2363 295.857 18.441 295.383 18.8504C294.909 19.2451 294.673 19.9469 294.673 20.9556V26.6355H290.873V14.3986H294.673V16.4381Z" fill="#0095FF"/>
</g>
<defs>
<clipPath id="clip0_90_66">
<rect width="299" height="38" fill="white"/>
</clipPath>
</defs>
</svg>
